<?xml version="1.0" encoding="UTF-8" standalone="no"?>
<svg
   version="1.0"
   width="1184"
   height="1184"
   viewBox="0 0 888 888"
   preserveAspectRatio="xMidYMid"
   id="svg150"
   sodipodi:docname="icon.svg"
   inkscape:version="1.2.2 (732a01da63, 2022-12-09)"
   xmlns:inkscape="http://www.inkscape.org/namespaces/inkscape"
   xmlns:sodipodi="http://sodipodi.sourceforge.net/DTD/sodipodi-0.dtd"
   xmlns="http://www.w3.org/2000/svg"
   xmlns:svg="http://www.w3.org/2000/svg">
  <defs
     id="defs154" />
  <sodipodi:namedview
     id="namedview152"
     pagecolor="#ffffff"
     bordercolor="#666666"
     borderopacity="1.0"
     inkscape:showpageshadow="2"
     inkscape:pageopacity="0.0"
     inkscape:pagecheckerboard="0"
     inkscape:deskcolor="#d1d1d1"
     inkscape:document-units="px"
     showgrid="false"
     shape-rendering="auto"
     inkscape:zoom="0.48135816"
     inkscape:cx="595.1909"
     inkscape:cy="608.69436"
     inkscape:window-width="1920"
     inkscape:window-height="1009"
     inkscape:window-x="1042"
     inkscape:window-y="294"
     inkscape:window-maximized="1"
     inkscape:current-layer="svg150" />
  <metadata
     id="metadata144">
Created by potrace 1.11, written by Peter Selinger 2001-2013
</metadata>
  <g
     transform="matrix(0.1,0,0,-0.1,0,888)"
     fill="#000000"
     stroke="none"
     id="g148"
     style="fill:#cccccc">
    <path
       d="m 8228,8865 c -2,-2 -25,-6 -53,-9 -38,-5 -278,-56 -425,-91 -33,-7 -381,-98 -465,-121 -49,-14 -124,-34 -165,-45 -67,-18 -485,-138 -615,-176 -50,-14 -106,-30 -135,-37 -8,-2 -35,-11 -60,-19 -25,-8 -85,-27 -135,-42 -49,-14 -101,-31 -115,-36 -14,-5 -34,-11 -45,-13 -11,-3 -65,-19 -120,-36 -55,-18 -127,-40 -160,-50 -175,-53 -247,-77 -550,-178 -364,-121 -578,-200 -820,-299 -88,-36 -214,-88 -280,-115 -66,-27 -129,-53 -140,-58 -11,-5 -67,-29 -125,-54 -342,-144 -535,-259 -579,-343 -34,-66 7,-145 156,-299 229,-238 293,-316 340,-413 38,-80 41,-152 10,-281 -57,-234 -175,-543 -281,-732 -98,-174 -172,-239 -341,-297 -116,-40 -147,-52 -210,-80 -107,-49 -179,-107 -290,-236 -51,-59 -179,-105 -365,-131 -19,-2 -48,-7 -65,-9 -16,-3 -50,-8 -75,-11 -69,-9 -130,-39 -130,-63 0,-24 31,-46 78,-56 18,-4 139,-8 270,-10 250,-4 302,-11 335,-44 19,-18 19,-23 7,-46 -19,-36 -198,-121 -490,-233 -850,-328 -914,-354 -1159,-473 -185,-90 -337,-186 -395,-249 -60,-65 -67,-107 -62,-350 3,-113 7,-216 10,-230 3,-14 7,-52 10,-85 7,-70 14,-128 21,-170 2,-16 7,-48 10,-70 3,-22 11,-64 16,-94 6,-30 12,-64 14,-75 1,-12 5,-34 9,-51 3,-16 8,-39 10,-50 12,-57 58,-258 71,-310 9,-33 18,-69 20,-79 25,-110 138,-416 216,-582 21,-47 39,-87 39,-90 0,-7 217,-438 261,-521 109,-201 293,-501 347,-564 11,-13 37,-44 56,-68 69,-82 126,-109 160,-75 26,25 14,65 -48,164 -138,218 -142,245 -138,800 2,206 4,488 5,625 1,138 -1,293 -6,345 -28,345 -28,594 -1,760 12,69 54,187 86,235 33,52 188,212 293,302 98,84 108,93 144,121 19,15 52,42 75,61 78,64 302,229 426,313 248,169 483,297 600,326 53,14 205,6 365,-17 33,-5 155,-8 270,-6 179,3 226,7 316,28 58,13 140,25 182,26 82,2 120,6 217,22 73,12 97,16 122,18 12,1 23,21 38,70 l 20,68 74,-17 c 81,-20 155,-30 331,-45 69,-6 132,-8 715,-20 484,-11 620,-8 729,16 85,19 131,63 98,96 -25,26 -104,34 -302,32 -373,-2 -408,-1 -471,26 -90,37 2,102 171,120 33,3 76,8 95,10 19,2 71,7 115,10 243,17 267,20 338,37 145,36 47,102 -203,137 -136,19 -262,25 -490,22 -124,-2 -362,-4 -530,-4 l -305,-1 -56,26 c -65,31 -171,109 -238,176 -52,51 -141,173 -141,191 0,6 -6,22 -14,34 -18,27 -54,165 -64,244 -12,98 -6,322 12,414 9,47 29,127 45,176 26,80 58,218 66,278 1,11 6,47 10,80 3,33 8,70 10,83 2,13 7,53 11,90 3,37 8,74 9,83 22,118 22,279 -1,464 -20,172 -20,172 70,238 108,79 426,248 666,355 25,11 77,34 115,52 92,42 443,191 570,242 55,22 109,44 120,48 24,11 130,52 390,150 199,75 449,173 500,195 17,7 118,50 225,95 237,100 333,143 490,220 229,113 348,191 337,223 -3,10 -70,20 -79,12 z"
       id="path146"
       style="fill:#cccccc" />
  </g>
  <g
     aria-label="DASH"
     id="text368"
     style="font-weight:bold;font-size:300px;line-height:1.25;font-family:'DIN Next Rounded LT Pro';-inkscape-font-specification:'DIN Next Rounded LT Pro Bold';letter-spacing:-9px;stroke-width:0.75">
    <path
       d="m 195,840.00012 c 0,3.6 0.9,6.6 3,8.7 2.1,2.4 5.1,3.3 9,3.3 h 51.9 c 39,0 63.6,-15.3 73.8,-46.5 3.9,-11.7 6,-30.3 6,-55.5 0,-25.2 -2.1,-43.5 -6,-55.5 -10.2,-30.9 -34.8,-46.5 -73.8,-46.5 H 207 c -3.9,0 -6.9,1.2 -9,3.3 -2.1,2.4 -3,5.1 -3,8.7 z m 26.7,-14.7 v -150.6 c 0,-1.2 0.6,-1.8 1.8,-1.8 h 33.6 c 13.8,0 24.6,2.4 32.4,7.2 7.8,4.8 13.8,12.6 17.4,23.7 3,10.2 4.8,25.5 4.8,46.5 0,20.7 -1.8,36.3 -4.8,46.5 -3.6,10.8 -9.6,18.6 -17.4,23.4 -7.8,4.8 -18.6,7.2 -32.4,7.2 h -33.6 c -1.2,0 -1.8,-0.9 -1.8,-2.1 z"
       style="fill:#55ddff"
       id="path436" />
    <path
       d="m 354.29986,841.20012 c 0,3.6 1.2,6.6 3.6,9 2.4,2.4 5.4,3.3 9,3.3 6.3,0 10.5,-3 12.6,-9.6 l 13.8,-39.3 h 83.7 l 13.8,39.3 c 2.4,6.6 6.6,9.6 12.9,9.6 3.6,0 6.6,-0.9 9,-3.3 2.4,-2.4 3.6,-5.4 3.6,-9 0,-1.5 -0.3,-3.6 -1.2,-6 l -61.8,-173.7 c -3.3,-9.9 -9.3,-15 -18,-15 -8.1,0 -13.8,5.1 -17.4,15 l -62.7,173.7 c -0.6,2.4 -0.9,4.5 -0.9,6 z m 47.7,-61.2 33,-92.7 h 0.9 l 32.4,92.7 z"
       style="fill:#55ddff"
       id="path438" />
    <path
       d="m 604.19995,855.30012 c 24,0 42.3,-5.4 55.2,-16.8 12.9,-11.1 19.5,-25.8 19.5,-44.1 0,-16.5 -5.1,-29.4 -15,-38.7 -9.9,-9.3 -25.2,-15.6 -45.6,-18.6 l -9.9,-1.5 c -15.6,-2.4 -26.4,-6.3 -32.7,-11.4 -6.6,-5.4 -9.6,-12.3 -9.6,-21.3 0,-9.9 3.3,-18 9.9,-24 6.6,-6 16.2,-9 28.8,-9 12,0 25.8,3.3 41.4,10.2 3.6,1.5 6.3,2.4 8.7,2.4 3.3,0 6,-1.2 8.4,-3.6 2.4,-2.4 3.6,-5.1 3.6,-8.4 0,-4.8 -2.4,-8.7 -7.2,-11.7 -15,-9.3 -33,-13.8 -54,-13.8 -20.4,0 -36.6,5.1 -48.6,15.9 -12,10.8 -18,25.2 -18,43.5 0,15.9 4.8,28.5 14.7,37.8 9.6,9.3 24.9,15.6 45.6,18.9 l 9.9,1.5 c 15.6,2.4 26.7,6 33,11.4 6.3,5.4 9.6,12.6 9.6,21.9 0,10.5 -4.2,18.9 -12.3,25.2 -8.1,6.3 -19.2,9.6 -33.3,9.6 -17.1,0 -33.9,-5.4 -50.7,-15.9 -3,-1.8 -5.7,-2.7 -8.4,-2.7 -3.9,0 -6.9,1.2 -9.3,3.6 -2.4,2.4 -3.6,5.4 -3.6,9 0,4.5 2.1,8.4 6.6,11.7 18.6,12.6 39.6,18.9 63.3,18.9 z"
       style="fill:#55ddff"
       id="path440" />
    <path
       d="m 710.99982,839.10012 c 0,4.5 1.2,8.1 3.6,10.8 2.4,2.4 5.7,3.9 9.6,3.9 4.2,0 7.2,-1.5 9.6,-3.9 2.4,-2.7 3.6,-6.3 3.6,-10.8 v -75.9 c 0,-1.2 0.6,-1.8 1.8,-1.8 h 88.5 c 1.2,0 1.8,0.6 1.8,1.8 v 75.9 c 0,4.5 1.5,8.1 3.9,10.8 2.4,2.4 5.7,3.9 9.6,3.9 4.2,0 7.2,-1.5 9.6,-3.9 2.4,-2.7 3.6,-6.3 3.6,-10.8 v -178.2 c 0,-4.2 -1.2,-7.8 -3.6,-10.5 -2.4,-2.4 -5.4,-3.9 -9.6,-3.9 -3.9,0 -7.2,1.5 -9.6,3.9 -2.4,2.7 -3.9,6.3 -3.9,10.5 v 73.8 c 0,1.2 -0.6,1.8 -1.8,1.8 h -88.5 c -1.2,0 -1.8,-0.6 -1.8,-1.8 v -73.8 c 0,-4.2 -1.2,-7.8 -3.6,-10.5 -2.4,-2.4 -5.4,-3.9 -9.6,-3.9 -3.9,0 -7.2,1.5 -9.6,3.9 -2.4,2.7 -3.6,6.3 -3.6,10.5 z"
       style="fill:#55ddff"
       id="path442" />
  </g>
</svg>
